<?xml version="1.0" encoding="UTF-8"?>
<!DOCTYPE svg PUBLIC "-//W3C//DTD SVG 1.1//EN" "http://www.w3.org/Graphics/SVG/1.1/DTD/svg11.dtd">
<!-- Creator: CorelDRAW (OEM Version) -->
<svg xmlns="http://www.w3.org/2000/svg" xml:space="preserve" width="6in" height="4in" version="1.1" style="shape-rendering:geometricPrecision; text-rendering:geometricPrecision; image-rendering:optimizeQuality; fill-rule:evenodd; clip-rule:evenodd"
viewBox="0 0 3359.68 2239.79"
 xmlns:xlink="http://www.w3.org/1999/xlink"
 xmlns:xodm="http://www.corel.com/coreldraw/odm/2003">
 <defs>
  <style type="text/css">
   <![CDATA[
    .str0 {stroke:#FBF9F1;stroke-width:139.99;stroke-linecap:round;stroke-miterlimit:2.61313}
    .str2 {stroke:#FBF9F1;stroke-width:46.66;stroke-linecap:round;stroke-miterlimit:2.61313}
    .str1 {stroke:#FBF9F1;stroke-width:139.99;stroke-linecap:round;stroke-linejoin:round;stroke-miterlimit:2.61313}
    .str3 {stroke:#FBF9F1;stroke-width:46.66;stroke-linecap:round;stroke-linejoin:round;stroke-miterlimit:2.61313}
    .fil1 {fill:none}
    .fil0 {fill:#0A6C26}
    .fil2 {fill:#EE4107}
    .fil3 {fill:#FBF9F1}
   ]]>
  </style>
 </defs>
 <g id="Layer_x0020_1">
  <metadata id="CorelCorpID_0Corel-Layer"/>
  <g id="_2533201413616">
   <rect class="fil0" x="-0" y="-0" width="3359.68" height="2239.79"/>
   <path class="fil1 str0" d="M682.96 693.01c-81.97,61.26 -126.99,152.88 -126.99,263.08 0,185.55 150.42,335.97 335.97,335.97 185.55,0 335.97,-150.42 335.97,-335.97 0,-105.9 -56.33,-202.42 -132.88,-264"/>
   <ellipse class="fil2" cx="891.8" cy="618.12" rx="71.33" ry="67.58"/>
   <polyline class="fil1 str1" points="1506.65,1269.65 1504.76,649.58 2031.25,1263.97 2033.96,861.99 "/>
   <line class="fil1 str0" x1="2372.57" y1="1259.46" x2="2372.57" y2= "648.44" />
   <line class="fil1 str0" x1="2697.48" y1="953.22" x2="2372.57" y2= "953.22" />
   <line class="fil1 str0" x1="2525.65" y1="644.13" x2="2379.58" y2= "644.13" />
   <line class="fil1 str0" x1="2742.57" y1="1263.75" x2="2378.32" y2= "1263.75" />
   <ellipse class="fil2" cx="2032.94" cy="637.91" rx="71.33" ry="67.58"/>
   <ellipse class="fil2" cx="2740.3" cy="637.65" rx="71.33" ry="67.58"/>
   <path class="fil1 str2" d="M614.89 1490.2c-19.06,-15.75 -42.51,-24.3 -66.65,-24.3 -60.03,0 -108.69,51.79 -108.69,115.67 0,63.88 48.66,115.67 108.69,115.67 5.29,0 10.58,-0.41 15.81,-1.23"/>
   <polyline class="fil1 str3" points="726.53,1477 727.33,1686.29 779.67,1685.52 "/>
   <line class="fil1 str3" x1="939.76" y1="1543.14" x2="940.18" y2= "1684.95" />
   <path class="fil1 str2" d="M1216.45 1488.25c-19.06,-15.75 -42.51,-24.3 -66.65,-24.3 -60.03,0 -108.69,51.79 -108.69,115.67 0,63.88 48.66,115.67 108.69,115.67 5.29,0 10.58,-0.41 15.81,-1.23"/>
   <line class="fil1 str3" x1="1328.64" y1="1477.68" x2="1331.65" y2= "1690.13" />
   <line class="fil1 str3" x1="1462.3" y1="1686.69" x2="1339.82" y2= "1572.97" />
   <line class="fil1 str3" x1="1400.52" y1="1529.07" x2="1340.48" y2= "1577.24" />
   <polyline class="fil1 str3" points="1766.18,1686.61 1764.14,1477.22 1688.75,1477.8 "/>
   <line class="fil1 str3" x1="1933.97" y1="1477.26" x2="1936.35" y2= "1688.37" />
   <line class="fil1 str3" x1="1984.31" y1="1477.48" x2="1933.97" y2= "1477.26" />
   <line class="fil1 str3" x1="2039.55" y1="1581.8" x2="1936.68" y2= "1582.19" />
   <line class="fil1 str3" x1="2049.37" y1="1687.03" x2="1936.35" y2= "1688.37" />
   <line class="fil1 str3" x1="2146.41" y1="1685.44" x2="2246.98" y2= "1484.74" />
   <line class="fil1 str3" x1="2313.53" y1="1622.72" x2="2246.98" y2= "1484.74" />
   <line class="fil1 str3" x1="2177.02" y1="1622.13" x2="2313.53" y2= "1622.72" />
   <path class="fil1 str2" d="M2587.88 1489.38c-19.06,-15.75 -42.51,-24.3 -66.65,-24.3 -60.03,0 -108.69,51.79 -108.69,115.67 0,63.88 48.66,115.67 108.69,115.67 5.29,0 10.58,-0.41 15.81,-1.23"/>
   <line class="fil1 str3" x1="2701.83" y1="1687.19" x2="2701.47" y2= "1474.37" />
   <line class="fil1 str3" x1="2861.63" y1="1688.08" x2="2861.96" y2= "1547.95" />
   <line class="fil1 str3" x1="2701.66" y1="1584.86" x2="2861.88" y2= "1583.85" />
   <circle class="fil3" cx="630.22" cy="1669.88" r="22.37"/>
   <circle class="fil3" cx="855.96" cy="1687.24" r="22.37"/>
   <circle class="fil3" cx="1232.94" cy="1669.1" r="22.37"/>
   <circle class="fil3" cx="938.97" cy="1467.85" r="22.37"/>
   <circle class="fil3" cx="1454.71" cy="1472.79" r="22.37"/>
   <circle class="fil3" cx="1843.37" cy="1472.79" r="22.37"/>
   <circle class="fil3" cx="2060.12" cy="1474.72" r="22.37"/>
   <circle class="fil3" cx="2347.58" cy="1681.41" r="22.37"/>
   <circle class="fil3" cx="2604.94" cy="1669.64" r="22.37"/>
   <circle class="fil3" cx="2862.88" cy="1473.5" r="22.37"/>
   <rect class="fil0" x="-0" y="-0" width="3359.68" height="2239.79"/>
   <path class="fil1 str0" d="M682.96 693.01c-81.97,61.26 -126.99,152.88 -126.99,263.08 0,185.55 150.42,335.97 335.97,335.97 185.55,0 335.97,-150.42 335.97,-335.97 0,-105.9 -56.33,-202.42 -132.88,-264"/>
   <ellipse class="fil2" cx="891.8" cy="618.12" rx="71.33" ry="67.58"/>
   <polyline class="fil1 str1" points="1506.65,1269.65 1504.76,649.58 2031.25,1263.97 2033.96,861.99 "/>
   <line class="fil1 str0" x1="2372.57" y1="1259.46" x2="2372.57" y2= "648.44" />
   <line class="fil1 str0" x1="2697.48" y1="953.22" x2="2372.57" y2= "953.22" />
   <line class="fil1 str0" x1="2525.65" y1="644.13" x2="2379.58" y2= "644.13" />
   <line class="fil1 str0" x1="2742.57" y1="1263.75" x2="2378.32" y2= "1263.75" />
   <ellipse class="fil2" cx="2032.94" cy="637.91" rx="71.33" ry="67.58"/>
   <ellipse class="fil2" cx="2740.3" cy="637.65" rx="71.33" ry="67.58"/>
   <path class="fil1 str2" d="M614.89 1490.2c-19.06,-15.75 -42.51,-24.3 -66.65,-24.3 -60.03,0 -108.69,51.79 -108.69,115.67 0,63.88 48.66,115.67 108.69,115.67 5.29,0 10.58,-0.41 15.81,-1.23"/>
   <polyline class="fil1 str3" points="726.53,1477 727.33,1686.29 779.67,1685.52 "/>
   <line class="fil1 str3" x1="939.76" y1="1543.14" x2="940.18" y2= "1684.95" />
   <path class="fil1 str2" d="M1216.45 1488.25c-19.06,-15.75 -42.51,-24.3 -66.65,-24.3 -60.03,0 -108.69,51.79 -108.69,115.67 0,63.88 48.66,115.67 108.69,115.67 5.29,0 10.58,-0.41 15.81,-1.23"/>
   <line class="fil1 str3" x1="1328.64" y1="1477.68" x2="1331.65" y2= "1690.13" />
   <line class="fil1 str3" x1="1462.3" y1="1686.69" x2="1339.82" y2= "1572.97" />
   <line class="fil1 str3" x1="1400.52" y1="1529.07" x2="1340.48" y2= "1577.24" />
   <polyline class="fil1 str3" points="1766.18,1686.61 1764.14,1477.22 1688.75,1477.8 "/>
   <line class="fil1 str3" x1="1933.97" y1="1477.26" x2="1936.35" y2= "1688.37" />
   <line class="fil1 str3" x1="1984.31" y1="1477.48" x2="1933.97" y2= "1477.26" />
   <line class="fil1 str3" x1="2039.55" y1="1581.8" x2="1936.68" y2= "1582.19" />
   <line class="fil1 str3" x1="2049.37" y1="1687.03" x2="1936.35" y2= "1688.37" />
   <line class="fil1 str3" x1="2146.41" y1="1685.44" x2="2246.98" y2= "1484.74" />
   <line class="fil1 str3" x1="2313.53" y1="1622.72" x2="2246.98" y2= "1484.74" />
   <line class="fil1 str3" x1="2177.02" y1="1622.13" x2="2313.53" y2= "1622.72" />
   <path class="fil1 str2" d="M2587.88 1489.38c-19.06,-15.75 -42.51,-24.3 -66.65,-24.3 -60.03,0 -108.69,51.79 -108.69,115.67 0,63.88 48.66,115.67 108.69,115.67 5.29,0 10.58,-0.41 15.81,-1.23"/>
   <line class="fil1 str3" x1="2701.83" y1="1687.19" x2="2701.47" y2= "1474.37" />
   <line class="fil1 str3" x1="2861.63" y1="1688.08" x2="2861.96" y2= "1547.95" />
   <line class="fil1 str3" x1="2701.66" y1="1584.86" x2="2861.88" y2= "1583.85" />
   <circle class="fil3" cx="630.22" cy="1669.88" r="22.37"/>
   <circle class="fil3" cx="855.96" cy="1687.24" r="22.37"/>
   <circle class="fil3" cx="1232.94" cy="1669.1" r="22.37"/>
   <circle class="fil3" cx="938.97" cy="1467.85" r="22.37"/>
   <circle class="fil3" cx="1454.71" cy="1472.79" r="22.37"/>
   <circle class="fil3" cx="1843.37" cy="1472.79" r="22.37"/>
   <circle class="fil3" cx="2060.12" cy="1474.72" r="22.37"/>
   <circle class="fil3" cx="2347.58" cy="1681.41" r="22.37"/>
   <circle class="fil3" cx="2604.94" cy="1669.64" r="22.37"/>
   <circle class="fil3" cx="2862.88" cy="1473.5" r="22.37"/>
  </g>
 </g>
</svg>
